# xmcd
#
# Track frame offsets:
#	152
#	64477
#	129010
#	193961
#
# Disc length: 3439 seconds
#
# Revision: 0
# Processed by: cddbd v1.5PL3 Copyright (c) Steve Scherf et al.
# Submitted via: dBpowerAMP V4.0
#
DISCID=370d6d04
DTITLE=Sons Of The Pioneers - Sons Of The  Pioneers
DYEAR=1900
DGENRE=Cowboy
TTITLE0=Show # 1
TTITLE1=Show # 2
TTITLE2=Show # 3
TTITLE3=Show # 4
EXTD=Sons Of The Pioneers
EXTT0=
EXTT1=
EXTT2=
EXTT3=
PLAYORDER=
